<mxfile host="app.diagrams.net" modified="2024-04-16T15:27:21.015Z" agent="Mozilla/5.0 (Macintosh; Intel Mac OS X 10.15; rv:124.0) Gecko/20100101 Firefox/124.0" etag="B9gEZ3cf4BRDk1MMUkTx" version="24.1.0" type="device">
  <diagram id="C5RBs43oDa-KdzZeNtuy" name="Page-1">
    <mxGraphModel dx="2511" dy="938" grid="1" gridSize="10" guides="1" tooltips="1" connect="1" arrows="1" fold="1" page="1" pageScale="1" pageWidth="827" pageHeight="1169" math="0" shadow="0">
      <root>
        <mxCell id="WIyWlLk6GJQsqaUBKTNV-0" />
        <mxCell id="WIyWlLk6GJQsqaUBKTNV-1" parent="WIyWlLk6GJQsqaUBKTNV-0" />
        <mxCell id="buHdy4F7PCQRqxx8gs4_-0" value="&lt;div&gt;Start&lt;/div&gt;&lt;div&gt;(Menu)&lt;br&gt;&lt;/div&gt;" style="strokeWidth=2;html=1;shape=mxgraph.flowchart.start_1;whiteSpace=wrap;" vertex="1" parent="WIyWlLk6GJQsqaUBKTNV-1">
          <mxGeometry x="330" y="30" width="100" height="60" as="geometry" />
        </mxCell>
        <mxCell id="buHdy4F7PCQRqxx8gs4_-1" value="What is the input?" style="endArrow=classic;html=1;rounded=0;" edge="1" parent="WIyWlLk6GJQsqaUBKTNV-1">
          <mxGeometry width="50" height="50" relative="1" as="geometry">
            <mxPoint x="380" y="160" as="sourcePoint" />
            <mxPoint x="380" y="90" as="targetPoint" />
          </mxGeometry>
        </mxCell>
        <mxCell id="buHdy4F7PCQRqxx8gs4_-3" value="&lt;div&gt;User chooses&lt;/div&gt;&lt;div&gt;input from 0-6&lt;br&gt;&lt;/div&gt;" style="shape=parallelogram;perimeter=parallelogramPerimeter;whiteSpace=wrap;html=1;fixedSize=1;" vertex="1" parent="WIyWlLk6GJQsqaUBKTNV-1">
          <mxGeometry x="320" y="160" width="120" height="40" as="geometry" />
        </mxCell>
        <mxCell id="buHdy4F7PCQRqxx8gs4_-4" value="" style="endArrow=classic;html=1;rounded=0;" edge="1" parent="WIyWlLk6GJQsqaUBKTNV-1">
          <mxGeometry width="50" height="50" relative="1" as="geometry">
            <mxPoint x="330" y="179.5" as="sourcePoint" />
            <mxPoint x="240" y="280" as="targetPoint" />
          </mxGeometry>
        </mxCell>
        <mxCell id="buHdy4F7PCQRqxx8gs4_-6" value="Add user" style="edgeLabel;html=1;align=center;verticalAlign=middle;resizable=0;points=[];" vertex="1" connectable="0" parent="buHdy4F7PCQRqxx8gs4_-4">
          <mxGeometry x="-0.0762" y="1" relative="1" as="geometry">
            <mxPoint as="offset" />
          </mxGeometry>
        </mxCell>
        <mxCell id="buHdy4F7PCQRqxx8gs4_-5" value="" style="endArrow=classic;html=1;rounded=0;" edge="1" parent="WIyWlLk6GJQsqaUBKTNV-1">
          <mxGeometry width="50" height="50" relative="1" as="geometry">
            <mxPoint x="430" y="180" as="sourcePoint" />
            <mxPoint x="520" y="280" as="targetPoint" />
          </mxGeometry>
        </mxCell>
        <mxCell id="buHdy4F7PCQRqxx8gs4_-9" value="Add phone" style="edgeLabel;html=1;align=center;verticalAlign=middle;resizable=0;points=[];" vertex="1" connectable="0" parent="buHdy4F7PCQRqxx8gs4_-5">
          <mxGeometry x="0.1111" y="-1" relative="1" as="geometry">
            <mxPoint as="offset" />
          </mxGeometry>
        </mxCell>
        <mxCell id="buHdy4F7PCQRqxx8gs4_-7" value="&lt;div&gt;User has input:&lt;/div&gt;&lt;div&gt;1 - Add user&lt;br&gt;&lt;/div&gt;" style="shape=parallelogram;perimeter=parallelogramPerimeter;whiteSpace=wrap;html=1;fixedSize=1;" vertex="1" parent="WIyWlLk6GJQsqaUBKTNV-1">
          <mxGeometry x="180" y="280" width="120" height="60" as="geometry" />
        </mxCell>
        <mxCell id="buHdy4F7PCQRqxx8gs4_-8" value="&lt;div&gt;User has input:&lt;/div&gt;&lt;div&gt;2 - Add phone&lt;br&gt;&lt;/div&gt;" style="shape=parallelogram;perimeter=parallelogramPerimeter;whiteSpace=wrap;html=1;fixedSize=1;" vertex="1" parent="WIyWlLk6GJQsqaUBKTNV-1">
          <mxGeometry x="450" y="280" width="120" height="60" as="geometry" />
        </mxCell>
        <mxCell id="buHdy4F7PCQRqxx8gs4_-10" value="&lt;div&gt;Start / End&lt;/div&gt;&lt;div&gt;(Looping)&lt;br&gt;&lt;/div&gt;" style="ellipse;whiteSpace=wrap;html=1;" vertex="1" parent="WIyWlLk6GJQsqaUBKTNV-1">
          <mxGeometry x="340" y="710" width="100" height="60" as="geometry" />
        </mxCell>
        <mxCell id="buHdy4F7PCQRqxx8gs4_-11" value="" style="endArrow=classic;html=1;rounded=0;entryX=0.5;entryY=0;entryDx=0;entryDy=0;" edge="1" parent="WIyWlLk6GJQsqaUBKTNV-1" target="buHdy4F7PCQRqxx8gs4_-14">
          <mxGeometry width="50" height="50" relative="1" as="geometry">
            <mxPoint x="230" y="340" as="sourcePoint" />
            <mxPoint x="230" y="400" as="targetPoint" />
          </mxGeometry>
        </mxCell>
        <mxCell id="buHdy4F7PCQRqxx8gs4_-12" value="" style="endArrow=classic;html=1;rounded=0;" edge="1" parent="WIyWlLk6GJQsqaUBKTNV-1" target="buHdy4F7PCQRqxx8gs4_-13">
          <mxGeometry width="50" height="50" relative="1" as="geometry">
            <mxPoint x="509.5" y="340" as="sourcePoint" />
            <mxPoint x="509.5" y="400" as="targetPoint" />
          </mxGeometry>
        </mxCell>
        <mxCell id="buHdy4F7PCQRqxx8gs4_-13" value="&lt;div&gt;User inputting&lt;/div&gt;&lt;div&gt;data&lt;br&gt;&lt;/div&gt;" style="shape=parallelogram;perimeter=parallelogramPerimeter;whiteSpace=wrap;html=1;fixedSize=1;" vertex="1" parent="WIyWlLk6GJQsqaUBKTNV-1">
          <mxGeometry x="450" y="420" width="120" height="60" as="geometry" />
        </mxCell>
        <mxCell id="buHdy4F7PCQRqxx8gs4_-14" value="&lt;div&gt;User inputting&lt;/div&gt;&lt;div&gt;data&lt;br&gt;&lt;/div&gt;" style="shape=parallelogram;perimeter=parallelogramPerimeter;whiteSpace=wrap;html=1;fixedSize=1;" vertex="1" parent="WIyWlLk6GJQsqaUBKTNV-1">
          <mxGeometry x="170" y="420" width="120" height="60" as="geometry" />
        </mxCell>
        <mxCell id="buHdy4F7PCQRqxx8gs4_-15" value="" style="endArrow=classic;html=1;rounded=0;entryX=0;entryY=0;entryDx=0;entryDy=0;exitX=0.5;exitY=1;exitDx=0;exitDy=0;" edge="1" parent="WIyWlLk6GJQsqaUBKTNV-1" source="buHdy4F7PCQRqxx8gs4_-14" target="buHdy4F7PCQRqxx8gs4_-10">
          <mxGeometry width="50" height="50" relative="1" as="geometry">
            <mxPoint x="230" y="460" as="sourcePoint" />
            <mxPoint x="280" y="410" as="targetPoint" />
          </mxGeometry>
        </mxCell>
        <mxCell id="buHdy4F7PCQRqxx8gs4_-16" value="" style="endArrow=classic;html=1;rounded=0;entryX=1;entryY=0;entryDx=0;entryDy=0;exitX=0.5;exitY=1;exitDx=0;exitDy=0;" edge="1" parent="WIyWlLk6GJQsqaUBKTNV-1" source="buHdy4F7PCQRqxx8gs4_-13" target="buHdy4F7PCQRqxx8gs4_-10">
          <mxGeometry width="50" height="50" relative="1" as="geometry">
            <mxPoint x="510" y="460" as="sourcePoint" />
            <mxPoint x="625" y="649" as="targetPoint" />
          </mxGeometry>
        </mxCell>
        <mxCell id="buHdy4F7PCQRqxx8gs4_-18" value="" style="endArrow=classic;html=1;rounded=0;" edge="1" parent="WIyWlLk6GJQsqaUBKTNV-1" target="buHdy4F7PCQRqxx8gs4_-21">
          <mxGeometry width="50" height="50" relative="1" as="geometry">
            <mxPoint x="430" y="180" as="sourcePoint" />
            <mxPoint x="640" y="180" as="targetPoint" />
          </mxGeometry>
        </mxCell>
        <mxCell id="buHdy4F7PCQRqxx8gs4_-23" value="See phones" style="edgeLabel;html=1;align=center;verticalAlign=middle;resizable=0;points=[];" vertex="1" connectable="0" parent="buHdy4F7PCQRqxx8gs4_-18">
          <mxGeometry x="0.208" y="-2" relative="1" as="geometry">
            <mxPoint as="offset" />
          </mxGeometry>
        </mxCell>
        <mxCell id="buHdy4F7PCQRqxx8gs4_-19" value="" style="endArrow=classic;html=1;rounded=0;" edge="1" parent="WIyWlLk6GJQsqaUBKTNV-1">
          <mxGeometry width="50" height="50" relative="1" as="geometry">
            <mxPoint x="330" y="179.5" as="sourcePoint" />
            <mxPoint x="120" y="179.5" as="targetPoint" />
          </mxGeometry>
        </mxCell>
        <mxCell id="buHdy4F7PCQRqxx8gs4_-22" value="See users" style="edgeLabel;html=1;align=center;verticalAlign=middle;resizable=0;points=[];" vertex="1" connectable="0" parent="buHdy4F7PCQRqxx8gs4_-19">
          <mxGeometry x="-0.3619" y="3" relative="1" as="geometry">
            <mxPoint x="-43" y="-2" as="offset" />
          </mxGeometry>
        </mxCell>
        <mxCell id="buHdy4F7PCQRqxx8gs4_-20" value="&lt;div&gt;User has input:&lt;/div&gt;&lt;div&gt;3 - See users.&lt;br&gt;&lt;/div&gt;" style="shape=parallelogram;perimeter=parallelogramPerimeter;whiteSpace=wrap;html=1;fixedSize=1;" vertex="1" parent="WIyWlLk6GJQsqaUBKTNV-1">
          <mxGeometry x="10" y="150" width="120" height="60" as="geometry" />
        </mxCell>
        <mxCell id="buHdy4F7PCQRqxx8gs4_-21" value="&lt;div&gt;User has input:&lt;/div&gt;&lt;div&gt;4 - See phones.&lt;br&gt;&lt;/div&gt;" style="shape=parallelogram;perimeter=parallelogramPerimeter;whiteSpace=wrap;html=1;fixedSize=1;" vertex="1" parent="WIyWlLk6GJQsqaUBKTNV-1">
          <mxGeometry x="670" y="150" width="120" height="60" as="geometry" />
        </mxCell>
        <mxCell id="buHdy4F7PCQRqxx8gs4_-24" value="" style="endArrow=classic;html=1;rounded=0;" edge="1" parent="WIyWlLk6GJQsqaUBKTNV-1">
          <mxGeometry width="50" height="50" relative="1" as="geometry">
            <mxPoint x="60" y="210" as="sourcePoint" />
            <mxPoint x="60" y="280" as="targetPoint" />
          </mxGeometry>
        </mxCell>
        <mxCell id="buHdy4F7PCQRqxx8gs4_-25" value="" style="endArrow=classic;html=1;rounded=0;" edge="1" parent="WIyWlLk6GJQsqaUBKTNV-1">
          <mxGeometry width="50" height="50" relative="1" as="geometry">
            <mxPoint x="729.5" y="210" as="sourcePoint" />
            <mxPoint x="729.5" y="280" as="targetPoint" />
          </mxGeometry>
        </mxCell>
        <mxCell id="buHdy4F7PCQRqxx8gs4_-26" value="&lt;div&gt;Are there&lt;/div&gt;&lt;div&gt;existing&lt;/div&gt;&lt;div&gt;users?&lt;br&gt;&lt;/div&gt;" style="strokeWidth=2;html=1;shape=mxgraph.flowchart.decision;whiteSpace=wrap;" vertex="1" parent="WIyWlLk6GJQsqaUBKTNV-1">
          <mxGeometry x="10" y="280" width="100" height="100" as="geometry" />
        </mxCell>
        <mxCell id="buHdy4F7PCQRqxx8gs4_-27" value="False" style="endArrow=classic;html=1;rounded=0;exitX=1;exitY=0.5;exitDx=0;exitDy=0;exitPerimeter=0;" edge="1" parent="WIyWlLk6GJQsqaUBKTNV-1" source="buHdy4F7PCQRqxx8gs4_-26">
          <mxGeometry x="0.2727" width="50" height="50" relative="1" as="geometry">
            <mxPoint x="110" y="410" as="sourcePoint" />
            <mxPoint x="110" y="520" as="targetPoint" />
            <mxPoint as="offset" />
          </mxGeometry>
        </mxCell>
        <mxCell id="buHdy4F7PCQRqxx8gs4_-28" value="" style="endArrow=classic;html=1;rounded=0;entryX=0.583;entryY=0.033;entryDx=0;entryDy=0;entryPerimeter=0;" edge="1" parent="WIyWlLk6GJQsqaUBKTNV-1" target="buHdy4F7PCQRqxx8gs4_-31">
          <mxGeometry width="50" height="50" relative="1" as="geometry">
            <mxPoint x="9" y="330" as="sourcePoint" />
            <mxPoint x="10" y="430" as="targetPoint" />
          </mxGeometry>
        </mxCell>
        <mxCell id="buHdy4F7PCQRqxx8gs4_-29" value="True" style="edgeLabel;html=1;align=center;verticalAlign=middle;resizable=0;points=[];" vertex="1" connectable="0" parent="buHdy4F7PCQRqxx8gs4_-28">
          <mxGeometry x="-0.2994" y="2" relative="1" as="geometry">
            <mxPoint as="offset" />
          </mxGeometry>
        </mxCell>
        <mxCell id="buHdy4F7PCQRqxx8gs4_-31" value="&lt;div&gt;Display&lt;/div&gt;&lt;div&gt;users.&lt;br&gt;&lt;/div&gt;" style="shape=parallelogram;perimeter=parallelogramPerimeter;whiteSpace=wrap;html=1;fixedSize=1;" vertex="1" parent="WIyWlLk6GJQsqaUBKTNV-1">
          <mxGeometry x="-60" y="430" width="120" height="60" as="geometry" />
        </mxCell>
        <mxCell id="buHdy4F7PCQRqxx8gs4_-32" value="&lt;div&gt;Return &quot;no users&lt;/div&gt;&lt;div&gt;to display&quot;&lt;br&gt;&lt;/div&gt;" style="shape=parallelogram;perimeter=parallelogramPerimeter;whiteSpace=wrap;html=1;fixedSize=1;" vertex="1" parent="WIyWlLk6GJQsqaUBKTNV-1">
          <mxGeometry x="40" y="520" width="120" height="60" as="geometry" />
        </mxCell>
        <mxCell id="buHdy4F7PCQRqxx8gs4_-33" value="" style="endArrow=classic;html=1;rounded=0;entryX=0;entryY=0.5;entryDx=0;entryDy=0;" edge="1" parent="WIyWlLk6GJQsqaUBKTNV-1" target="buHdy4F7PCQRqxx8gs4_-10">
          <mxGeometry width="50" height="50" relative="1" as="geometry">
            <mxPoint x="140" y="580" as="sourcePoint" />
            <mxPoint x="190" y="530" as="targetPoint" />
          </mxGeometry>
        </mxCell>
        <mxCell id="buHdy4F7PCQRqxx8gs4_-35" value="" style="endArrow=none;html=1;rounded=0;" edge="1" parent="WIyWlLk6GJQsqaUBKTNV-1">
          <mxGeometry width="50" height="50" relative="1" as="geometry">
            <mxPoint x="10" y="640" as="sourcePoint" />
            <mxPoint x="10" y="490" as="targetPoint" />
          </mxGeometry>
        </mxCell>
        <mxCell id="buHdy4F7PCQRqxx8gs4_-36" value="" style="endArrow=classic;html=1;rounded=0;entryX=0;entryY=0.5;entryDx=0;entryDy=0;" edge="1" parent="WIyWlLk6GJQsqaUBKTNV-1" target="buHdy4F7PCQRqxx8gs4_-10">
          <mxGeometry width="50" height="50" relative="1" as="geometry">
            <mxPoint x="10" y="640" as="sourcePoint" />
            <mxPoint x="60" y="590" as="targetPoint" />
          </mxGeometry>
        </mxCell>
        <mxCell id="buHdy4F7PCQRqxx8gs4_-40" value="" style="endArrow=classic;html=1;rounded=0;exitX=0;exitY=0.5;exitDx=0;exitDy=0;exitPerimeter=0;" edge="1" parent="WIyWlLk6GJQsqaUBKTNV-1" source="buHdy4F7PCQRqxx8gs4_-41">
          <mxGeometry width="50" height="50" relative="1" as="geometry">
            <mxPoint x="640" y="400" as="sourcePoint" />
            <mxPoint x="680" y="440" as="targetPoint" />
          </mxGeometry>
        </mxCell>
        <mxCell id="buHdy4F7PCQRqxx8gs4_-42" value="True" style="edgeLabel;html=1;align=center;verticalAlign=middle;resizable=0;points=[];" vertex="1" connectable="0" parent="buHdy4F7PCQRqxx8gs4_-40">
          <mxGeometry x="0.0545" y="2" relative="1" as="geometry">
            <mxPoint x="-2" as="offset" />
          </mxGeometry>
        </mxCell>
        <mxCell id="buHdy4F7PCQRqxx8gs4_-41" value="&lt;div&gt;Are there&lt;/div&gt;&lt;div&gt;existing&lt;/div&gt;&lt;div&gt;phones?&lt;br&gt;&lt;/div&gt;" style="strokeWidth=2;html=1;shape=mxgraph.flowchart.decision;whiteSpace=wrap;" vertex="1" parent="WIyWlLk6GJQsqaUBKTNV-1">
          <mxGeometry x="680" y="280" width="100" height="100" as="geometry" />
        </mxCell>
        <mxCell id="buHdy4F7PCQRqxx8gs4_-43" value="&lt;div&gt;Display&lt;/div&gt;&lt;div&gt;phones.&lt;br&gt;&lt;/div&gt;" style="shape=parallelogram;perimeter=parallelogramPerimeter;whiteSpace=wrap;html=1;fixedSize=1;" vertex="1" parent="WIyWlLk6GJQsqaUBKTNV-1">
          <mxGeometry x="620" y="440" width="120" height="60" as="geometry" />
        </mxCell>
        <mxCell id="buHdy4F7PCQRqxx8gs4_-44" value="" style="endArrow=classic;html=1;rounded=0;" edge="1" parent="WIyWlLk6GJQsqaUBKTNV-1">
          <mxGeometry width="50" height="50" relative="1" as="geometry">
            <mxPoint x="780" y="330" as="sourcePoint" />
            <mxPoint x="780" y="510" as="targetPoint" />
          </mxGeometry>
        </mxCell>
        <mxCell id="buHdy4F7PCQRqxx8gs4_-48" value="False" style="edgeLabel;html=1;align=center;verticalAlign=middle;resizable=0;points=[];" vertex="1" connectable="0" parent="buHdy4F7PCQRqxx8gs4_-44">
          <mxGeometry x="0.4778" relative="1" as="geometry">
            <mxPoint as="offset" />
          </mxGeometry>
        </mxCell>
        <mxCell id="buHdy4F7PCQRqxx8gs4_-45" value="&lt;div&gt;Return &quot;no&lt;/div&gt;&lt;div&gt;phones to&lt;/div&gt;&lt;div&gt;display&quot;&lt;br&gt;&lt;/div&gt;" style="shape=parallelogram;perimeter=parallelogramPerimeter;whiteSpace=wrap;html=1;fixedSize=1;" vertex="1" parent="WIyWlLk6GJQsqaUBKTNV-1">
          <mxGeometry x="720" y="510" width="120" height="60" as="geometry" />
        </mxCell>
        <mxCell id="buHdy4F7PCQRqxx8gs4_-46" value="" style="endArrow=classic;html=1;rounded=0;entryX=1;entryY=0.5;entryDx=0;entryDy=0;" edge="1" parent="WIyWlLk6GJQsqaUBKTNV-1" target="buHdy4F7PCQRqxx8gs4_-10">
          <mxGeometry width="50" height="50" relative="1" as="geometry">
            <mxPoint x="680" y="500" as="sourcePoint" />
            <mxPoint x="730" y="450" as="targetPoint" />
          </mxGeometry>
        </mxCell>
        <mxCell id="buHdy4F7PCQRqxx8gs4_-47" value="" style="endArrow=classic;html=1;rounded=0;entryX=1;entryY=0.5;entryDx=0;entryDy=0;" edge="1" parent="WIyWlLk6GJQsqaUBKTNV-1" target="buHdy4F7PCQRqxx8gs4_-10">
          <mxGeometry width="50" height="50" relative="1" as="geometry">
            <mxPoint x="780" y="570" as="sourcePoint" />
            <mxPoint x="830" y="520" as="targetPoint" />
          </mxGeometry>
        </mxCell>
        <mxCell id="buHdy4F7PCQRqxx8gs4_-50" value="" style="endArrow=none;html=1;rounded=0;" edge="1" parent="WIyWlLk6GJQsqaUBKTNV-1">
          <mxGeometry width="50" height="50" relative="1" as="geometry">
            <mxPoint x="440" y="160" as="sourcePoint" />
            <mxPoint x="490" y="110" as="targetPoint" />
          </mxGeometry>
        </mxCell>
        <mxCell id="buHdy4F7PCQRqxx8gs4_-51" value="" style="endArrow=classic;html=1;rounded=0;" edge="1" parent="WIyWlLk6GJQsqaUBKTNV-1">
          <mxGeometry width="50" height="50" relative="1" as="geometry">
            <mxPoint x="490" y="110" as="sourcePoint" />
            <mxPoint x="820" y="110" as="targetPoint" />
          </mxGeometry>
        </mxCell>
        <mxCell id="buHdy4F7PCQRqxx8gs4_-52" value="Set phone to user" style="edgeLabel;html=1;align=center;verticalAlign=middle;resizable=0;points=[];" vertex="1" connectable="0" parent="buHdy4F7PCQRqxx8gs4_-51">
          <mxGeometry x="-0.2" y="-2" relative="1" as="geometry">
            <mxPoint as="offset" />
          </mxGeometry>
        </mxCell>
        <mxCell id="buHdy4F7PCQRqxx8gs4_-53" value="&lt;div&gt;User has input:&lt;/div&gt;&lt;div&gt;5 -&amp;nbsp; Set phone&lt;/div&gt;&lt;div&gt;to user.&lt;br&gt;&lt;/div&gt;" style="shape=parallelogram;perimeter=parallelogramPerimeter;whiteSpace=wrap;html=1;fixedSize=1;" vertex="1" parent="WIyWlLk6GJQsqaUBKTNV-1">
          <mxGeometry x="810" y="80" width="120" height="60" as="geometry" />
        </mxCell>
        <mxCell id="buHdy4F7PCQRqxx8gs4_-54" value="" style="endArrow=classic;html=1;rounded=0;" edge="1" parent="WIyWlLk6GJQsqaUBKTNV-1">
          <mxGeometry width="50" height="50" relative="1" as="geometry">
            <mxPoint x="870" y="140" as="sourcePoint" />
            <mxPoint x="870" y="220" as="targetPoint" />
          </mxGeometry>
        </mxCell>
        <mxCell id="buHdy4F7PCQRqxx8gs4_-81" value="" style="edgeStyle=orthogonalEdgeStyle;rounded=0;orthogonalLoop=1;jettySize=auto;html=1;" edge="1" parent="WIyWlLk6GJQsqaUBKTNV-1" source="buHdy4F7PCQRqxx8gs4_-55" target="buHdy4F7PCQRqxx8gs4_-66">
          <mxGeometry relative="1" as="geometry" />
        </mxCell>
        <mxCell id="buHdy4F7PCQRqxx8gs4_-55" value="&lt;div&gt;Are there&lt;/div&gt;&lt;div&gt;users?&lt;br&gt;&lt;/div&gt;" style="strokeWidth=2;html=1;shape=mxgraph.flowchart.decision;whiteSpace=wrap;" vertex="1" parent="WIyWlLk6GJQsqaUBKTNV-1">
          <mxGeometry x="820" y="220" width="100" height="100" as="geometry" />
        </mxCell>
        <mxCell id="buHdy4F7PCQRqxx8gs4_-56" value="" style="endArrow=classic;html=1;rounded=0;" edge="1" parent="WIyWlLk6GJQsqaUBKTNV-1">
          <mxGeometry width="50" height="50" relative="1" as="geometry">
            <mxPoint x="870" y="320" as="sourcePoint" />
            <mxPoint x="870" y="400" as="targetPoint" />
          </mxGeometry>
        </mxCell>
        <mxCell id="buHdy4F7PCQRqxx8gs4_-57" value="True" style="edgeLabel;html=1;align=center;verticalAlign=middle;resizable=0;points=[];" vertex="1" connectable="0" parent="buHdy4F7PCQRqxx8gs4_-56">
          <mxGeometry relative="1" as="geometry">
            <mxPoint as="offset" />
          </mxGeometry>
        </mxCell>
        <mxCell id="buHdy4F7PCQRqxx8gs4_-58" value="&lt;div&gt;Are there&lt;/div&gt;&lt;div&gt;phones?&lt;br&gt;&lt;/div&gt;" style="strokeWidth=2;html=1;shape=mxgraph.flowchart.decision;whiteSpace=wrap;" vertex="1" parent="WIyWlLk6GJQsqaUBKTNV-1">
          <mxGeometry x="820" y="400" width="100" height="100" as="geometry" />
        </mxCell>
        <mxCell id="buHdy4F7PCQRqxx8gs4_-59" value="" style="endArrow=classic;html=1;rounded=0;" edge="1" parent="WIyWlLk6GJQsqaUBKTNV-1">
          <mxGeometry width="50" height="50" relative="1" as="geometry">
            <mxPoint x="870" y="500" as="sourcePoint" />
            <mxPoint x="870" y="600" as="targetPoint" />
          </mxGeometry>
        </mxCell>
        <mxCell id="buHdy4F7PCQRqxx8gs4_-60" value="True" style="edgeLabel;html=1;align=center;verticalAlign=middle;resizable=0;points=[];" vertex="1" connectable="0" parent="buHdy4F7PCQRqxx8gs4_-59">
          <mxGeometry x="0.02" y="4" relative="1" as="geometry">
            <mxPoint x="-4" y="-1" as="offset" />
          </mxGeometry>
        </mxCell>
        <mxCell id="buHdy4F7PCQRqxx8gs4_-61" value="&lt;div&gt;User set phone&lt;/div&gt;&lt;div&gt;to user.&lt;br&gt;&lt;/div&gt;" style="shape=parallelogram;perimeter=parallelogramPerimeter;whiteSpace=wrap;html=1;fixedSize=1;" vertex="1" parent="WIyWlLk6GJQsqaUBKTNV-1">
          <mxGeometry x="810" y="600" width="120" height="60" as="geometry" />
        </mxCell>
        <mxCell id="buHdy4F7PCQRqxx8gs4_-62" value="" style="endArrow=classic;html=1;rounded=0;entryX=1;entryY=1;entryDx=0;entryDy=0;" edge="1" parent="WIyWlLk6GJQsqaUBKTNV-1" target="buHdy4F7PCQRqxx8gs4_-10">
          <mxGeometry width="50" height="50" relative="1" as="geometry">
            <mxPoint x="810" y="660" as="sourcePoint" />
            <mxPoint x="860" y="610" as="targetPoint" />
          </mxGeometry>
        </mxCell>
        <mxCell id="buHdy4F7PCQRqxx8gs4_-63" value="" style="endArrow=classic;html=1;rounded=0;" edge="1" parent="WIyWlLk6GJQsqaUBKTNV-1">
          <mxGeometry width="50" height="50" relative="1" as="geometry">
            <mxPoint x="920" y="270" as="sourcePoint" />
            <mxPoint x="990" y="270" as="targetPoint" />
          </mxGeometry>
        </mxCell>
        <mxCell id="buHdy4F7PCQRqxx8gs4_-64" value="False" style="edgeLabel;html=1;align=center;verticalAlign=middle;resizable=0;points=[];" vertex="1" connectable="0" parent="buHdy4F7PCQRqxx8gs4_-63">
          <mxGeometry x="0.0571" y="-3" relative="1" as="geometry">
            <mxPoint x="-7" y="-3" as="offset" />
          </mxGeometry>
        </mxCell>
        <mxCell id="buHdy4F7PCQRqxx8gs4_-66" value="&lt;div&gt;Start / End&lt;/div&gt;&lt;div&gt;(Looping)&lt;br&gt;&lt;/div&gt;" style="ellipse;whiteSpace=wrap;html=1;" vertex="1" parent="WIyWlLk6GJQsqaUBKTNV-1">
          <mxGeometry x="990" y="240" width="100" height="60" as="geometry" />
        </mxCell>
        <mxCell id="buHdy4F7PCQRqxx8gs4_-67" value="" style="endArrow=classic;html=1;rounded=0;" edge="1" parent="WIyWlLk6GJQsqaUBKTNV-1">
          <mxGeometry width="50" height="50" relative="1" as="geometry">
            <mxPoint x="920" y="449.5" as="sourcePoint" />
            <mxPoint x="990" y="449.5" as="targetPoint" />
          </mxGeometry>
        </mxCell>
        <mxCell id="buHdy4F7PCQRqxx8gs4_-68" value="False" style="edgeLabel;html=1;align=center;verticalAlign=middle;resizable=0;points=[];" vertex="1" connectable="0" parent="buHdy4F7PCQRqxx8gs4_-67">
          <mxGeometry x="0.0571" y="-3" relative="1" as="geometry">
            <mxPoint x="-7" y="-3" as="offset" />
          </mxGeometry>
        </mxCell>
        <mxCell id="buHdy4F7PCQRqxx8gs4_-69" value="&lt;div&gt;Start / End&lt;/div&gt;&lt;div&gt;(Looping)&lt;br&gt;&lt;/div&gt;" style="ellipse;whiteSpace=wrap;html=1;" vertex="1" parent="WIyWlLk6GJQsqaUBKTNV-1">
          <mxGeometry x="990" y="420" width="100" height="60" as="geometry" />
        </mxCell>
        <mxCell id="buHdy4F7PCQRqxx8gs4_-70" value="" style="endArrow=classic;html=1;rounded=0;entryX=1;entryY=0.5;entryDx=0;entryDy=0;" edge="1" parent="WIyWlLk6GJQsqaUBKTNV-1" target="buHdy4F7PCQRqxx8gs4_-73">
          <mxGeometry width="50" height="50" relative="1" as="geometry">
            <mxPoint x="265" y="120" as="sourcePoint" />
            <mxPoint x="-65" y="120" as="targetPoint" />
          </mxGeometry>
        </mxCell>
        <mxCell id="buHdy4F7PCQRqxx8gs4_-71" value="Remove phone from user" style="edgeLabel;html=1;align=center;verticalAlign=middle;resizable=0;points=[];" vertex="1" connectable="0" parent="buHdy4F7PCQRqxx8gs4_-70">
          <mxGeometry x="-0.2" y="-2" relative="1" as="geometry">
            <mxPoint x="-43" as="offset" />
          </mxGeometry>
        </mxCell>
        <mxCell id="buHdy4F7PCQRqxx8gs4_-72" value="" style="endArrow=none;html=1;rounded=0;exitX=0;exitY=0;exitDx=0;exitDy=0;" edge="1" parent="WIyWlLk6GJQsqaUBKTNV-1" source="buHdy4F7PCQRqxx8gs4_-3">
          <mxGeometry width="50" height="50" relative="1" as="geometry">
            <mxPoint x="215" y="170" as="sourcePoint" />
            <mxPoint x="265" y="120" as="targetPoint" />
          </mxGeometry>
        </mxCell>
        <mxCell id="buHdy4F7PCQRqxx8gs4_-73" value="&lt;div&gt;User has input:&lt;/div&gt;&lt;div&gt;6 - Remove phone&lt;/div&gt;&lt;div&gt;from user.&lt;br&gt;&lt;/div&gt;" style="shape=parallelogram;perimeter=parallelogramPerimeter;whiteSpace=wrap;html=1;fixedSize=1;" vertex="1" parent="WIyWlLk6GJQsqaUBKTNV-1">
          <mxGeometry x="-190" y="90" width="130" height="60" as="geometry" />
        </mxCell>
        <mxCell id="buHdy4F7PCQRqxx8gs4_-74" value="&lt;div&gt;Are there&lt;/div&gt;&lt;div&gt;users?&lt;br&gt;&lt;/div&gt;" style="strokeWidth=2;html=1;shape=mxgraph.flowchart.decision;whiteSpace=wrap;" vertex="1" parent="WIyWlLk6GJQsqaUBKTNV-1">
          <mxGeometry x="-175" y="230" width="100" height="100" as="geometry" />
        </mxCell>
        <mxCell id="buHdy4F7PCQRqxx8gs4_-75" value="&lt;div&gt;Does the&lt;/div&gt;&lt;div&gt;user have&lt;/div&gt;&lt;div&gt;phone?&lt;br&gt;&lt;/div&gt;" style="strokeWidth=2;html=1;shape=mxgraph.flowchart.decision;whiteSpace=wrap;" vertex="1" parent="WIyWlLk6GJQsqaUBKTNV-1">
          <mxGeometry x="-175" y="410" width="100" height="100" as="geometry" />
        </mxCell>
        <mxCell id="buHdy4F7PCQRqxx8gs4_-76" value="" style="endArrow=classic;html=1;rounded=0;" edge="1" parent="WIyWlLk6GJQsqaUBKTNV-1">
          <mxGeometry width="50" height="50" relative="1" as="geometry">
            <mxPoint x="-125.59000000000003" y="150" as="sourcePoint" />
            <mxPoint x="-125.59000000000003" y="230" as="targetPoint" />
          </mxGeometry>
        </mxCell>
        <mxCell id="buHdy4F7PCQRqxx8gs4_-77" value="" style="endArrow=classic;html=1;rounded=0;" edge="1" parent="WIyWlLk6GJQsqaUBKTNV-1">
          <mxGeometry width="50" height="50" relative="1" as="geometry">
            <mxPoint x="-125.59000000000003" y="330" as="sourcePoint" />
            <mxPoint x="-125.59000000000003" y="410" as="targetPoint" />
          </mxGeometry>
        </mxCell>
        <mxCell id="buHdy4F7PCQRqxx8gs4_-78" value="True" style="edgeLabel;html=1;align=center;verticalAlign=middle;resizable=0;points=[];" vertex="1" connectable="0" parent="buHdy4F7PCQRqxx8gs4_-77">
          <mxGeometry relative="1" as="geometry">
            <mxPoint as="offset" />
          </mxGeometry>
        </mxCell>
        <mxCell id="buHdy4F7PCQRqxx8gs4_-80" value="&lt;div&gt;Start / End&lt;/div&gt;&lt;div&gt;(Looping)&lt;br&gt;&lt;/div&gt;" style="ellipse;whiteSpace=wrap;html=1;" vertex="1" parent="WIyWlLk6GJQsqaUBKTNV-1">
          <mxGeometry x="-350" y="250" width="100" height="60" as="geometry" />
        </mxCell>
        <mxCell id="buHdy4F7PCQRqxx8gs4_-82" value="" style="endArrow=classic;html=1;rounded=0;entryX=1;entryY=0.5;entryDx=0;entryDy=0;exitX=0;exitY=0.5;exitDx=0;exitDy=0;exitPerimeter=0;" edge="1" parent="WIyWlLk6GJQsqaUBKTNV-1" source="buHdy4F7PCQRqxx8gs4_-74" target="buHdy4F7PCQRqxx8gs4_-80">
          <mxGeometry width="50" height="50" relative="1" as="geometry">
            <mxPoint x="-200" y="330" as="sourcePoint" />
            <mxPoint x="-245" y="278.82" as="targetPoint" />
          </mxGeometry>
        </mxCell>
        <mxCell id="buHdy4F7PCQRqxx8gs4_-83" value="False" style="edgeLabel;html=1;align=center;verticalAlign=middle;resizable=0;points=[];" vertex="1" connectable="0" parent="buHdy4F7PCQRqxx8gs4_-82">
          <mxGeometry x="0.0571" y="-3" relative="1" as="geometry">
            <mxPoint x="5" y="4" as="offset" />
          </mxGeometry>
        </mxCell>
        <mxCell id="buHdy4F7PCQRqxx8gs4_-85" value="&lt;div&gt;Start / End&lt;/div&gt;&lt;div&gt;(Looping)&lt;br&gt;&lt;/div&gt;" style="ellipse;whiteSpace=wrap;html=1;" vertex="1" parent="WIyWlLk6GJQsqaUBKTNV-1">
          <mxGeometry x="-350" y="430" width="100" height="60" as="geometry" />
        </mxCell>
        <mxCell id="buHdy4F7PCQRqxx8gs4_-86" value="" style="endArrow=classic;html=1;rounded=0;entryX=1;entryY=0.5;entryDx=0;entryDy=0;exitX=0;exitY=0.5;exitDx=0;exitDy=0;exitPerimeter=0;" edge="1" parent="WIyWlLk6GJQsqaUBKTNV-1" source="buHdy4F7PCQRqxx8gs4_-75" target="buHdy4F7PCQRqxx8gs4_-85">
          <mxGeometry width="50" height="50" relative="1" as="geometry">
            <mxPoint x="-185" y="459.40999999999997" as="sourcePoint" />
            <mxPoint x="-260" y="459.40999999999997" as="targetPoint" />
          </mxGeometry>
        </mxCell>
        <mxCell id="buHdy4F7PCQRqxx8gs4_-87" value="False" style="edgeLabel;html=1;align=center;verticalAlign=middle;resizable=0;points=[];" vertex="1" connectable="0" parent="buHdy4F7PCQRqxx8gs4_-86">
          <mxGeometry x="0.0571" y="-3" relative="1" as="geometry">
            <mxPoint x="5" y="4" as="offset" />
          </mxGeometry>
        </mxCell>
        <mxCell id="buHdy4F7PCQRqxx8gs4_-88" value="" style="endArrow=classic;html=1;rounded=0;" edge="1" parent="WIyWlLk6GJQsqaUBKTNV-1">
          <mxGeometry width="50" height="50" relative="1" as="geometry">
            <mxPoint x="-125.59000000000003" y="510" as="sourcePoint" />
            <mxPoint x="-125.59000000000003" y="610" as="targetPoint" />
          </mxGeometry>
        </mxCell>
        <mxCell id="buHdy4F7PCQRqxx8gs4_-89" value="True" style="edgeLabel;html=1;align=center;verticalAlign=middle;resizable=0;points=[];" vertex="1" connectable="0" parent="buHdy4F7PCQRqxx8gs4_-88">
          <mxGeometry x="0.02" y="4" relative="1" as="geometry">
            <mxPoint x="-4" y="-1" as="offset" />
          </mxGeometry>
        </mxCell>
        <mxCell id="buHdy4F7PCQRqxx8gs4_-90" value="&lt;div&gt;Phone is removed&lt;/div&gt;&lt;div&gt;from user&lt;br&gt;&lt;/div&gt;" style="shape=parallelogram;perimeter=parallelogramPerimeter;whiteSpace=wrap;html=1;fixedSize=1;" vertex="1" parent="WIyWlLk6GJQsqaUBKTNV-1">
          <mxGeometry x="-195" y="610" width="135" height="60" as="geometry" />
        </mxCell>
        <mxCell id="buHdy4F7PCQRqxx8gs4_-92" value="" style="endArrow=classic;html=1;rounded=0;entryX=0;entryY=1;entryDx=0;entryDy=0;" edge="1" parent="WIyWlLk6GJQsqaUBKTNV-1" target="buHdy4F7PCQRqxx8gs4_-10">
          <mxGeometry width="50" height="50" relative="1" as="geometry">
            <mxPoint x="-80" y="670" as="sourcePoint" />
            <mxPoint x="-30" y="620" as="targetPoint" />
          </mxGeometry>
        </mxCell>
        <mxCell id="buHdy4F7PCQRqxx8gs4_-94" value="" style="endArrow=classic;html=1;rounded=0;entryX=0.5;entryY=0;entryDx=0;entryDy=0;" edge="1" parent="WIyWlLk6GJQsqaUBKTNV-1" target="buHdy4F7PCQRqxx8gs4_-96">
          <mxGeometry width="50" height="50" relative="1" as="geometry">
            <mxPoint x="379.41" y="200" as="sourcePoint" />
            <mxPoint x="379.41" y="270" as="targetPoint" />
          </mxGeometry>
        </mxCell>
        <mxCell id="buHdy4F7PCQRqxx8gs4_-95" value="Exit program" style="edgeLabel;html=1;align=center;verticalAlign=middle;resizable=0;points=[];" vertex="1" connectable="0" parent="buHdy4F7PCQRqxx8gs4_-94">
          <mxGeometry x="0.1664" y="3" relative="1" as="geometry">
            <mxPoint x="-2" y="-11" as="offset" />
          </mxGeometry>
        </mxCell>
        <mxCell id="buHdy4F7PCQRqxx8gs4_-96" value="&lt;div&gt;User has input:&lt;/div&gt;&lt;div&gt;0 - Exit program&lt;br&gt;&lt;/div&gt;" style="shape=parallelogram;perimeter=parallelogramPerimeter;whiteSpace=wrap;html=1;fixedSize=1;" vertex="1" parent="WIyWlLk6GJQsqaUBKTNV-1">
          <mxGeometry x="320" y="280" width="120" height="60" as="geometry" />
        </mxCell>
        <mxCell id="buHdy4F7PCQRqxx8gs4_-97" value="" style="endArrow=classic;html=1;rounded=0;entryX=0.5;entryY=0;entryDx=0;entryDy=0;" edge="1" parent="WIyWlLk6GJQsqaUBKTNV-1">
          <mxGeometry width="50" height="50" relative="1" as="geometry">
            <mxPoint x="379.40999999999997" y="340" as="sourcePoint" />
            <mxPoint x="379.40999999999997" y="420" as="targetPoint" />
          </mxGeometry>
        </mxCell>
        <mxCell id="buHdy4F7PCQRqxx8gs4_-98" value="&lt;div&gt;End / Program&lt;/div&gt;&lt;div&gt;stops.&lt;br&gt;&lt;/div&gt;" style="ellipse;whiteSpace=wrap;html=1;" vertex="1" parent="WIyWlLk6GJQsqaUBKTNV-1">
          <mxGeometry x="330" y="420" width="100" height="60" as="geometry" />
        </mxCell>
      </root>
    </mxGraphModel>
  </diagram>
</mxfile>
